<?xml version="1.0" encoding="UTF-8"?>
<svg version="1.1" xmlns="http://www.w3.org/2000/svg" width="128" height="128">
<path d="M0 0 C0.70318359 -0.01224609 1.40636719 -0.02449219 2.13085938 -0.03710938 C6.20653561 -0.04856863 9.44979805 0.23376175 13.0625 2.1875 C14.34111615 4.74473229 14.17586609 6.55487102 14.16015625 9.4140625 C14.15693359 10.4453125 14.15371094 11.4765625 14.15039062 12.5390625 C14.13782227 14.15941406 14.13782227 14.15941406 14.125 15.8125 C14.12048828 16.90046875 14.11597656 17.9884375 14.11132812 19.109375 C14.09951776 21.80213789 14.08304778 24.49479188 14.0625 27.1875 C15.08404175 27.17178955 15.08404175 27.17178955 16.1262207 27.15576172 C19.20910966 27.11421122 22.29193971 27.08817689 25.375 27.0625 C26.44685547 27.04574219 27.51871094 27.02898438 28.62304688 27.01171875 C29.65107422 27.00527344 30.67910156 26.99882813 31.73828125 26.9921875 C32.68614502 26.98171387 33.63400879 26.97124023 34.6105957 26.96044922 C37.0625 27.1875 37.0625 27.1875 40.0625 29.1875 C40.45068359 31.47827148 40.45068359 31.47827148 40.4609375 34.30859375 C40.46480469 35.32630859 40.46867187 36.34402344 40.47265625 37.39257812 C40.46105469 38.45927734 40.44945313 39.52597656 40.4375 40.625 C40.44910156 41.68783203 40.46070312 42.75066406 40.47265625 43.84570312 C40.46878906 44.86470703 40.46492188 45.88371094 40.4609375 46.93359375 C40.45755371 47.86872803 40.45416992 48.8038623 40.45068359 49.76733398 C40.0625 52.1875 40.0625 52.1875 38.87036133 53.99755859 C36.39520796 55.62671423 34.68733659 55.52934812 31.73828125 55.48046875 C30.71025391 55.47080078 29.68222656 55.46113281 28.62304688 55.45117188 C27.01526367 55.4134668 27.01526367 55.4134668 25.375 55.375 C23.74981445 55.35469727 23.74981445 55.35469727 22.09179688 55.33398438 C19.41486595 55.29860643 16.73893162 55.24924189 14.0625 55.1875 C14.07821045 55.86852783 14.0939209 56.54955566 14.11010742 57.2512207 C14.17243222 60.33406281 14.21148258 63.41677244 14.25 66.5 C14.27513672 67.57185547 14.30027344 68.64371094 14.32617188 69.74804688 C14.33583984 70.77607422 14.34550781 71.80410156 14.35546875 72.86328125 C14.3711792 73.81114502 14.38688965 74.75900879 14.40307617 75.7355957 C14.0625 78.1875 14.0625 78.1875 12.85668945 79.99536133 C10.48325721 81.57237448 8.90200129 81.57510365 6.0625 81.5859375 C5.093125 81.58980469 4.12375 81.59367187 3.125 81.59765625 C2.114375 81.58605469 1.10375 81.57445313 0.0625 81.5625 C-0.948125 81.57410156 -1.95875 81.58570312 -3 81.59765625 C-3.969375 81.59378906 -4.93875 81.58992188 -5.9375 81.5859375 C-6.824375 81.58255371 -7.71125 81.57916992 -8.625 81.57568359 C-10.9375 81.1875 -10.9375 81.1875 -12.73168945 79.99536133 C-14.38206211 77.52097188 -14.27951968 75.82268723 -14.23046875 72.86328125 C-14.22080078 71.83525391 -14.21113281 70.80722656 -14.20117188 69.74804688 C-14.17603516 68.67619141 -14.15089844 67.60433594 -14.125 66.5 C-14.10469727 64.87481445 -14.10469727 64.87481445 -14.08398438 63.21679688 C-14.04860643 60.53986595 -13.99924189 57.86393162 -13.9375 55.1875 C-14.61852783 55.19797363 -15.29955566 55.20844727 -16.0012207 55.21923828 C-19.08410966 55.26078878 -22.16693971 55.28682311 -25.25 55.3125 C-26.32185547 55.32925781 -27.39371094 55.34601563 -28.49804688 55.36328125 C-29.52607422 55.36972656 -30.55410156 55.37617187 -31.61328125 55.3828125 C-32.56114502 55.39328613 -33.50900879 55.40375977 -34.4855957 55.41455078 C-36.9375 55.1875 -36.9375 55.1875 -39.9375 53.1875 C-41.48844522 49.44909448 -41.12136417 45.23850174 -41.125 41.25 C-41.13724609 40.54681641 -41.14949219 39.84363281 -41.16210938 39.11914062 C-41.17356863 35.04346439 -40.89123825 31.80020195 -38.9375 28.1875 C-36.38026771 26.90888385 -34.57012898 27.07413391 -31.7109375 27.08984375 C-30.6796875 27.09306641 -29.6484375 27.09628906 -28.5859375 27.09960938 C-26.96558594 27.11217773 -26.96558594 27.11217773 -25.3125 27.125 C-23.68054687 27.13176758 -23.68054687 27.13176758 -22.015625 27.13867188 C-19.32286211 27.15048224 -16.63020812 27.16695222 -13.9375 27.1875 C-13.94797363 26.50647217 -13.95844727 25.82544434 -13.96923828 25.1237793 C-14.01078878 22.04089034 -14.03682311 18.95806029 -14.0625 15.875 C-14.07925781 14.80314453 -14.09601562 13.73128906 -14.11328125 12.62695312 C-14.11972656 11.59892578 -14.12617187 10.57089844 -14.1328125 9.51171875 C-14.14328613 8.56385498 -14.15375977 7.61599121 -14.16455078 6.6394043 C-13.9375 4.1875 -13.9375 4.1875 -11.9375 1.1875 C-8.19909448 -0.36344522 -3.98850174 0.00363583 0 0 Z " fill="#000000" transform="translate(63.9375,22.8125)"/>
</svg>
